<svg xmlns="http://www.w3.org/2000/svg" xmlns:xlink="http://www.w3.org/1999/xlink" version="1.1" x="0px" y="0px" viewBox="0 0 100 125" style="enable-background:new 0 0 100 100;" xml:space="preserve"><style type="text/css">
	.st0{fill:none;stroke:#000000;stroke-width:4;stroke-linecap:round;stroke-linejoin:round;stroke-miterlimit:10;}
</style><path d="M68.1,23H52.3l0.8-7.8c0.1-0.6-0.1-1.1-0.5-1.5c-0.4-0.4-0.9-0.7-1.5-0.7h-6c-0.6,0-1.1,0.2-1.5,0.7c-0.4,0.4-0.6,1-0.5,1.5  l0.8,7.8h-20c-1.1,0-2,0.9-2,2v3.2c0,0.6,0.3,1.2,0.8,1.6l7.2,5.7l3.8,19.6v9.5l-5.4,19.7c-0.2,0.6,0,1.2,0.3,1.7  c0.4,0.5,1,0.8,1.6,0.8h36c0.6,0,1.2-0.3,1.6-0.8c0.4-0.5,0.5-1.1,0.3-1.7l-5.4-19.7v-9.5L67.8,27h0.3c3.3,0,6,2.7,6,6v1  c0,2.9-2,5.3-4.8,5.9c-1.1,0.2-1.8,1.3-1.6,2.3c0.2,1,1,1.6,2,1.6c0.1,0,0.3,0,0.4,0c4.7-0.9,8.1-5,8.1-9.8v-1  C78.1,27.5,73.6,23,68.1,23z M58.6,63h-21v-6h21V63z M50.7,67l2.1,16h-9.4l2.1-16H50.7z M45.9,53l-2.6-26h2.8h4h2.8l-2.6,26H45.9z   M47.3,17h1.6l-0.6,6h-0.4L47.3,17z M32.9,32.9l-7-5.6V27h13.4l2.6,26h-4.6l-3.6-18.9C33.5,33.6,33.3,33.2,32.9,32.9z M37.1,67h4.3  l-2.1,16h-6.6L37.1,67z M56.9,83l-2.1-16h4.3l4.4,16H56.9z M59,53h-4.6l2.6-26h6.8L59,53z"/><text x="0" y="115" fill="#000000" font-size="5px" font-weight="bold" font-family="'Helvetica Neue', Helvetica, Arial-Unicode, Arial, Sans-serif">Created by Deivid Sáenz</text><text x="0" y="120" fill="#000000" font-size="5px" font-weight="bold" font-family="'Helvetica Neue', Helvetica, Arial-Unicode, Arial, Sans-serif">from the Noun Project</text></svg>