<svg xmlns="http://www.w3.org/2000/svg" xmlns:xlink="http://www.w3.org/1999/xlink" version="1.1" x="0px" y="0px" viewBox="0 0 100 125" style="enable-background:new 0 0 100 100;" xml:space="preserve"><style type="text/css">
	.st0{fill:none;stroke:#000000;stroke-width:4;stroke-linecap:round;stroke-linejoin:round;stroke-miterlimit:10;}
</style><g><path d="M50,91H30c-1.1,0-2,0.9-2,2s0.9,2,2,2h20c1.1,0,2-0.9,2-2S51.1,91,50,91z"/><path d="M38.6,19.7c-0.7,0.7-0.7,2,0,2.7C39,22.8,39.5,23,40,23s1-0.2,1.4-0.6c2.2-2.2,2.2-5.8,0-8c-0.7-0.7-0.7-1.9,0-2.6   c0.7-0.7,0.7-2,0-2.7c-0.7-0.7-2-0.7-2.7,0c-2.2,2.2-2.2,5.8,0,8C39.3,17.8,39.3,19,38.6,19.7z"/><path d="M69.5,39H67v-4c0-1.1-0.9-2-2-2H40c-1.1,0-2,0.9-2,2c0,1.1,0.9,2,2,2h23v38c0,4.4-3.6,8-8,8H25c-4.4,0-8-3.6-8-8V37h14v8   h-5c-1.1,0-2,0.9-2,2v16c0,1.1,0.9,2,2,2h14c1.1,0,2-0.9,2-2V47c0-1.1-0.9-2-2-2h-5V33c0-1.1-0.9-2-2-2s-2,0.9-2,2H15   c-1.1,0-2,0.9-2,2v40c0,6.6,5.4,12,12,12h30c6.6,0,12-5.4,12-12v-2h3c9.3,0,16.8-7.5,17-16.7C87.2,46.8,79.1,39,69.5,39z M38,61H28   V49h10V61z M70,69h-3V43h3c7.2,0,13,5.8,13,13S77.2,69,70,69z"/></g><text x="0" y="115" fill="#000000" font-size="5px" font-weight="bold" font-family="'Helvetica Neue', Helvetica, Arial-Unicode, Arial, Sans-serif">Created by Deivid Sáenz</text><text x="0" y="120" fill="#000000" font-size="5px" font-weight="bold" font-family="'Helvetica Neue', Helvetica, Arial-Unicode, Arial, Sans-serif">from the Noun Project</text></svg>