<svg xmlns="http://www.w3.org/2000/svg" xmlns:xlink="http://www.w3.org/1999/xlink" version="1.1" x="0px" y="0px" viewBox="0 0 48 60" enable-background="new 0 0 48 48" xml:space="preserve"><g><path d="M35.596,48H12.405c-0.405,0-0.77-0.244-0.924-0.618L4.583,30.71c-0.128-0.308-0.093-0.66,0.092-0.938   s0.498-0.444,0.832-0.444h36.985c0.334,0,0.646,0.167,0.831,0.444s0.221,0.629,0.093,0.938L36.52,47.382   C36.365,47.756,36,48,35.596,48z M13.073,46h21.854l6.069-14.672H7.003L13.073,46z"/><path d="M47,31.328H1c-0.552,0-1-0.447-1-1s0.448-1,1-1h46c0.553,0,1,0.447,1,1S47.553,31.328,47,31.328z"/><g><path d="M21.469,20.82c-4.126,0-7.484-3.104-7.484-6.92s3.357-6.92,7.484-6.92c4.127,0,7.484,3.104,7.484,6.92    S25.596,20.82,21.469,20.82z M21.469,8.98c-3.024,0-5.484,2.207-5.484,4.92s2.46,4.92,5.484,4.92s5.484-2.207,5.484-4.92    S24.493,8.98,21.469,8.98z"/><path d="M43.707,31.329H4.177c-0.406,0-0.771-0.245-0.925-0.62c-0.404-0.985-0.609-2.007-0.609-3.034    c0-5.067,4.832-9.165,10.422-8.489c0.361-1.195,0.934-2.336,1.709-3.403c0.205-0.282,0.542-0.442,0.89-0.409    c0.348,0.028,0.655,0.235,0.813,0.546c0.888,1.762,2.849,2.901,4.995,2.901c3.024,0,5.484-2.207,5.484-4.92    c0-0.609-0.128-1.211-0.38-1.788c-0.146-0.336-0.098-0.725,0.128-1.014c0.224-0.29,0.583-0.434,0.951-0.373    c4.589,0.752,8.396,3.798,9.872,7.842c4.509,0.8,7.834,4.459,7.834,8.746c0,1.182-0.249,2.334-0.74,3.425    C44.457,31.099,44.101,31.329,43.707,31.329z M4.884,29.329h38.144c0.221-0.652,0.332-1.327,0.332-2.015    c0-3.47-2.881-6.416-6.701-6.852c-0.397-0.045-0.729-0.323-0.845-0.707c-0.941-3.142-3.574-5.643-6.914-6.685    c0.036,0.274,0.055,0.551,0.055,0.83c0,3.815-3.357,6.92-7.484,6.92c-2.299,0-4.451-0.991-5.854-2.616    c-0.388,0.745-0.667,1.521-0.831,2.32c-0.054,0.262-0.21,0.491-0.434,0.636c-0.225,0.145-0.496,0.194-0.757,0.14    c-4.709-1.024-8.952,2.265-8.952,6.374C4.642,28.229,4.723,28.783,4.884,29.329z"/><path d="M19.127,9.387c-0.003,0-0.006,0-0.009,0c-0.552-0.005-0.996-0.457-0.991-1.009c0.035-3.792-3.692-6.542-3.729-6.569    c-0.447-0.324-0.546-0.949-0.222-1.396c0.324-0.447,0.951-0.546,1.396-0.222c0.188,0.136,4.599,3.393,4.555,8.206    C20.122,8.945,19.675,9.387,19.127,9.387z"/></g><path d="M24,44.631c-0.552,0-1-0.447-1-1v-10c0-0.553,0.448-1,1-1c0.553,0,1,0.447,1,1v10C25,44.184,24.553,44.631,24,44.631z"/><g><path d="M18.349,44.631c-0.415,0-0.803-0.26-0.945-0.674l-3.449-10c-0.18-0.522,0.097-1.092,0.619-1.271    c0.522-0.181,1.091,0.098,1.271,0.619l3.449,10c0.18,0.522-0.097,1.092-0.619,1.271C18.567,44.613,18.457,44.631,18.349,44.631z"/><path d="M29.65,44.631c-0.108,0-0.218-0.018-0.326-0.055c-0.522-0.18-0.799-0.749-0.619-1.271l3.449-10    c0.18-0.522,0.749-0.798,1.271-0.619c0.522,0.18,0.799,0.749,0.619,1.271l-3.449,10C30.453,44.371,30.065,44.631,29.65,44.631z"/></g></g><text x="0" y="63" fill="#000000" font-size="5px" font-weight="bold" font-family="'Helvetica Neue', Helvetica, Arial-Unicode, Arial, Sans-serif">Created by Creative Stall</text><text x="0" y="68" fill="#000000" font-size="5px" font-weight="bold" font-family="'Helvetica Neue', Helvetica, Arial-Unicode, Arial, Sans-serif">from the Noun Project</text></svg>