<svg xmlns="http://www.w3.org/2000/svg" xmlns:xlink="http://www.w3.org/1999/xlink" version="1.1" x="0px" y="0px" viewBox="0 0 100 125" enable-background="new 0 0 100 100" xml:space="preserve"><path d="M92.871,44.117c-0.467,0-1.088-0.093-1.723-0.312c0.803-1.269,1.215-2.62,1.215-3.818c0-2.551-1.789-3.929-3.473-3.929  c-0.916,0-1.795,0.396-2.416,1.084c-0.449,0.501-0.986,1.4-0.986,2.845c0,1.801,0.637,3.221,1.594,4.287  c-0.449,0.322-0.955,0.609-1.516,0.848c-1.27-16.255-17.365-29.109-37.041-29.109c-3.695,0-7.262,0.457-10.629,1.299  c-8.723-2.965-19.744-1.997-20.48-0.434c-0.447,0.95,1.863,4.871,4.379,8.683c-4.051,3.53-7.117,7.857-8.836,12.677h-5.83  c-0.342,0-0.684,0.13-0.945,0.39c-0.26,0.262-0.391,0.603-0.391,0.946V50.99c0,0.477,0.125,0.96,0.393,1.396  s0.641,0.767,1.064,0.982l5.768,2.943c2.418,6.655,7.412,12.365,14.008,16.309v10.653c0,0.343,0.131,0.684,0.393,0.944  c0.26,0.262,0.602,0.392,0.943,0.392h10.121c0.496,0,0.998-0.136,1.447-0.424c0.447-0.289,0.779-0.688,0.984-1.139l2.273-4.993  c1.744,0.215,3.525,0.325,5.338,0.325c2.863,0,5.65-0.272,8.326-0.788v5.683c0,0.341,0.131,0.684,0.391,0.944  c0.262,0.26,0.602,0.392,0.943,0.392h10.193c0.479,0,0.965-0.128,1.402-0.398c0.438-0.272,0.77-0.647,0.984-1.076  c0,0,12.705-25.379,12.834-25.694c0.705-1.699,1.238-3.468,1.584-5.289c0.262-1.37,0.408-2.771,0.449-4.193  c1.453-0.465,2.678-1.177,3.67-2.03c1.178,0.581,2.455,0.859,3.568,0.859c0.738,0,1.336-0.599,1.336-1.335  C94.207,44.716,93.609,44.117,92.871,44.117z M24.369,39.002c-1.193,0-2.158-0.968-2.158-2.159s0.965-2.16,2.158-2.16  c1.191,0,2.158,0.968,2.158,2.16S25.561,39.002,24.369,39.002z M59.334,23.604H37.719v-1.78h21.615V23.604z M88.941,42.325  c-0.473-0.597-0.781-1.364-0.781-2.338c0-0.765,0.287-1.258,0.73-1.258c0.398,0,0.801,0.39,0.801,1.258  C89.691,40.709,89.436,41.53,88.941,42.325z"/><text x="0" y="115" fill="#000000" font-size="5px" font-weight="bold" font-family="'Helvetica Neue', Helvetica, Arial-Unicode, Arial, Sans-serif">Created by Anisha Varghese</text><text x="0" y="120" fill="#000000" font-size="5px" font-weight="bold" font-family="'Helvetica Neue', Helvetica, Arial-Unicode, Arial, Sans-serif">from the Noun Project</text></svg>